<svg width="19" height="24" viewBox="0 0 19 24" fill="none" xmlns="http://www.w3.org/2000/svg">
<path fill-rule="evenodd" clip-rule="evenodd" d="M1.92871 7.79187C1.92871 3.70697 5.34994 0.334839 9.55405 0.334839C13.7582 0.334839 17.1856 3.70697 17.1856 7.79187C17.1856 11.9486 15.7862 14.7637 15.7246 14.8775C15.6075 15.1052 15.3671 15.2489 15.102 15.2489H13.1725C14.3438 14.2427 15.0958 12.7093 15.0958 11.0023C15.0958 9.5051 14.729 8.4772 14.3059 7.2915L14.3006 7.27677C13.7397 5.71348 11.6068 5.44994 10.639 6.77963C9.8746 7.82781 7.7109 8.33093 5.94172 8.44473C4.85679 8.51661 4.00611 9.40307 4.00611 10.4632V11.164C4.00611 12.7812 4.75816 14.2606 5.9294 15.2489H4.01227C3.7472 15.2489 3.50679 15.1052 3.38967 14.8775C3.32803 14.7578 1.92871 11.9486 1.92871 7.79187ZM16.2424 18.633C11.8287 19.5075 7.26703 19.5135 2.8595 18.639C3.40813 18.3695 3.98758 18.2018 4.53005 18.046L4.67372 18.0046C5.75318 17.6935 6.94566 17.3498 7.6184 16.2432C8.22251 16.4588 8.86977 16.5966 9.55402 16.5966C10.2506 16.5966 10.8979 16.4588 11.5081 16.2372C12.1943 17.3579 13.3742 17.6955 14.4434 18.0015L14.578 18.04L14.6513 18.0619C15.1724 18.217 15.7243 18.3813 16.2424 18.633ZM1.25688 23.3348H17.8576C18.2521 23.3348 18.5788 23.0174 18.5541 22.6341C18.4678 21.2864 18.1288 20.376 17.6418 19.7351C14.9911 20.352 12.2788 20.6575 9.56647 20.6575C6.85414 20.6575 4.14798 20.3221 1.49729 19.7111C1.00414 20.352 0.652771 21.2744 0.56647 22.6341C0.535648 23.0174 0.86236 23.3348 1.25688 23.3348ZM13.0022 7.74485C13.3987 8.8532 13.7145 9.73595 13.7145 11.0023C13.7145 13.2304 12.007 15.2489 9.55354 15.2429C7.26039 15.2429 5.39258 13.3861 5.39258 11.158V10.4572C5.39258 10.1038 5.67614 9.81035 6.03984 9.7864C7.33436 9.70254 10.4905 9.31322 11.7727 7.55228C12.1056 7.09707 12.8083 7.21088 12.9933 7.71999L13.0022 7.74485Z" fill="url(#paint0_linear)"/>
<defs>
<linearGradient id="paint0_linear" x1="1.07118" y1="0.334839" x2="1.07118" y2="21.2341" gradientUnits="userSpaceOnUse">
<stop stop-color="#FF5669"/>
<stop offset="1" stop-color="#F8306E"/>
</linearGradient>
</defs>
</svg>
