<svg width="23" height="24" viewBox="0 0 23 24" fill="none" xmlns="http://www.w3.org/2000/svg">
<path d="M17.9702 15.8416C15.0382 14.7995 14.0973 13.919 14.0973 12.0325C14.0973 11.8228 14.1276 11.6671 14.1823 11.5354C14.4129 10.9544 15.0685 10.8885 15.3903 9.19359C15.5542 8.33115 16.3433 9.18161 16.4951 7.21717C16.4951 6.43258 16.0641 6.24093 16.0641 6.24093C16.0641 6.24093 16.2826 5.08502 16.3676 4.19264C16.4708 3.07865 15.712 0.209839 11.6327 0.209839C11.6145 0.209839 11.5963 0.209839 11.5842 0.209839C11.5659 0.209839 11.5477 0.209839 11.5295 0.209839C7.46238 0.209839 6.69751 3.07865 6.8007 4.18665C6.88569 5.07903 7.10422 6.23494 7.10422 6.23494C7.10422 6.23494 6.67323 6.43258 6.67323 7.21118C6.82499 9.17562 7.61413 8.33115 7.77803 9.1876C8.09976 10.8825 8.75536 10.9424 8.98604 11.5294C9.04067 11.6611 9.07102 11.8168 9.07102 12.0265C9.07102 13.9131 8.13619 14.7935 5.19813 15.8356C2.254 16.8897 0.930664 17.9557 0.930664 18.6864V23.4598H22.2376V18.6864C22.2376 17.9557 20.9143 16.8897 17.9702 15.8416Z" fill="url(#paint0_linear)"/>
<defs>
<linearGradient id="paint0_linear" x1="11.5842" y1="0.209839" x2="11.5842" y2="23.4598" gradientUnits="userSpaceOnUse">
<stop stop-color="#1A72FF"/>
<stop offset="1" stop-color="#58ABFF"/>
</linearGradient>
</defs>
</svg>
